<svg xmlns="http://www.w3.org/2000/svg" viewBox="0 0 512 512">
  <rect width="512" height="512" rx="96" fill="#0f172a"/>
  <g transform="translate(96 150)">
    <path fill="#34d399" d="M40 92c0-8 4-24 12-40 6-13 18-20 33-20h150c15 0 27 7 33 20 8 16 12 32 12 40l18 8c8 4 14 12 14 22v40c0 8-6 14-14 14h-16c0 18-14 32-32 32s-32-14-32-32H99c0 18-14 32-32 32s-32-14-32-32H19c-8 0-14-6-14-14v-40c0-10 6-18 14-22z"/>
    <circle cx="67" cy="176" r="18" fill="#0f172a"/>
    <circle cx="253" cy="176" r="18" fill="#0f172a"/>
    <path fill="#0f172a" d="M70 40c-8 0-15 4-18 11L40 84h240l-12-33c-3-7-10-11-18-11z" opacity=".9"/>
  </g>
</svg>
